<svg width="780" height="630" viewBox="0 0 780 630" fill="none" xmlns="http://www.w3.org/2000/svg">
<path d="M144.771 535.829C128.445 504.079 101.074 490.709 85.7557 485.484C82.1476 484.253 81.4044 478.68 84.7552 476.862C117.698 458.989 171.762 430.196 186.5 424.445C207 416.445 247.5 434.445 256 465.945C294.919 448.895 333.409 477.755 351.179 497.862C353.244 500.197 352.464 503.781 349.706 505.233L248.737 558.419C239.562 563.252 228.36 561.883 219.843 555.969C203.009 544.281 174.042 528.248 152.904 538.266C149.987 539.648 146.247 538.7 144.771 535.829Z" fill="#D6D3FF"/>
<ellipse cx="59.2963" cy="78.3995" rx="59.2963" ry="78.3995" transform="matrix(0.985549 0.16939 -0.0957126 0.995409 518.031 79.1475)" fill="#D6D3FF"/>
<ellipse cx="36.3616" cy="48.076" rx="36.3616" ry="48.076" transform="matrix(0.985549 0.16939 -0.0957126 0.995409 598.703 69.5566)" fill="#D6D3FF"/>
<path d="M166.384 247.254L155.189 323.191C154.772 326.013 156.111 328.806 158.572 330.25L183.713 344.998C189.643 348.477 196.9 348.832 203.142 345.95L310.273 296.482C313.46 295.01 315.497 291.836 315.422 288.327C315.201 278.077 314.361 255.558 311.162 232.758C307.746 208.418 295.314 191.281 290.181 185.094C288.871 183.515 286.699 183.073 284.808 183.868L182.029 227.079C173.644 230.604 167.711 238.255 166.384 247.254Z" fill="#6DF9A5"/>
<path d="M376 284.051L219.165 362.468C208.824 367.639 208.852 382.406 219.213 387.536L430.666 492.248C445.601 499.644 463.207 499.276 477.82 491.262L596.995 425.908C604.881 421.584 610.314 413.846 611.703 404.96L641.692 213.118C642.755 206.319 639.055 199.67 632.718 196.988L413.256 104.103C407.82 101.802 401.679 105.269 400.839 111.112L376 284.051Z" fill="#73ECFF"/>
<ellipse cx="620.5" cy="456.051" rx="65" ry="51.5" fill="#6DF9A5"/>
<path d="M581.132 481.965C579.717 465.609 592.611 451.551 609.028 451.551H641.98C658.025 451.551 670.788 465.007 669.941 481.029L667.403 529.029C666.616 543.898 654.331 555.551 639.442 555.551H613.182C598.653 555.551 586.538 544.439 585.286 529.965L581.132 481.965Z" fill="#6DF9A5"/>
<path d="M547.712 437.77C547.712 437.77 496.382 464.44 471.502 476.19C443.782 489.27 424.232 473.47 399.232 463.47C374.232 453.47 267.442 401.47 239.892 386.47C213.512 372.08 205.722 360.1 231.232 346.47C252.232 335.29 323.442 301.92 352.232 288.47C369.442 280.47 377.132 277.08 382.822 280.91C389.352 285.32 384.822 291.85 377.442 288.09C371.082 284.83 372.222 269.27 373.652 254.79C376.302 228.04 389.652 143.87 392.812 125.99C398.752 91.99 399.082 90.32 414.202 96.12C423.722 99.77 614.202 181.12 627.202 187.12C640.202 193.12 636.202 205.12 634.202 217.12C632.202 229.12 606.942 386.02 606.942 386.02" stroke="#1D1D1F" stroke-width="4" stroke-miterlimit="10"/>
<path d="M422.119 408.62C422.119 408.62 405.339 416.41 397.549 420.62C389.759 424.83 383.159 426.62 367.549 420.62C351.939 414.62 310.009 394.84 301.009 388.25C292.009 381.66 301.009 379.86 309.409 373.86C317.809 367.86 336.979 360.08 348.409 352.28C359.839 344.48 349.009 342.09 344.809 345.09C340.609 348.09 335.229 351.67 359.229 361.86C383.229 372.05 436.509 401.47 458.089 410.47C479.669 419.47 485.669 424.26 507.249 415.26C528.829 406.26 531.819 406.26 545.009 397.26C558.199 388.26 554.009 385.26 536.619 376.26C519.229 367.26 404.739 314.47 390.349 306.71C375.959 298.95 368.769 296.52 351.989 303.71C335.209 310.9 326.229 316.9 313.619 323.47C301.009 330.04 301.029 336.06 311.229 340.85C321.429 345.64 329.809 349.24 329.809 349.24" stroke="#1D1D1F" stroke-width="4" stroke-miterlimit="10"/>
<path d="M360.379 319.9C389.749 331.29 509.639 392.44 509.639 392.44" stroke="#1D1D1F" stroke-width="4" stroke-miterlimit="10"/>
<path d="M592.109 349.922C592.109 349.922 612.439 230.842 614.189 220.362C615.939 209.882 619.189 200.912 607.819 195.672C596.449 190.432 430.099 119.852 421.949 116.272C411.369 111.622 408.659 108.812 404.209 141.942C401.929 158.942 388.799 235.882 386.789 255.422C385.059 272.272 391.969 276.422 398.599 280.872C405.229 285.322 562.489 359.652 573.539 364.512C584.589 369.372 589.459 364.472 592.109 349.922Z" stroke="#1D1D1F" stroke-width="4" stroke-miterlimit="10"/>
<path d="M171.548 502.16C171.548 502.16 219.818 475.47 241.428 464.83C263.038 454.19 298.708 426.74 352.898 490.36L234.228 553.29C213.548 521.19 162.808 504.17 148.798 518.39C138.188 529.16 154.908 534.98 156.278 524.93C157.768 514.09 130.278 466.74 83.6484 469.83C83.6484 469.83 140.268 439.52 164.538 424.66C188.808 409.8 205.048 410.15 225.318 421.66C245.588 433.17 251.228 448.79 251.228 448.79" stroke="#1D1D1F" stroke-width="4" stroke-miterlimit="10"/>
<path d="M223.012 509.882C237.582 500.462 256.572 489.232 262.852 485.932" stroke="#1D1D1F" stroke-width="4" stroke-miterlimit="10"/>
<path d="M271.82 477.66C270.63 478.43 270.72 480.4 271.52 481.56C271.958 482.12 272.528 482.561 273.179 482.844C273.831 483.127 274.543 483.243 275.25 483.18C276.664 483.033 278.03 482.579 279.25 481.85C280.05 481.41 280.95 480.67 280.72 479.79C280.525 479.316 280.172 478.924 279.72 478.68C278.581 477.801 277.299 477.125 275.93 476.68C275.244 476.471 274.515 476.441 273.815 476.595C273.114 476.75 272.465 477.082 271.93 477.56" fill="#1D1D1F"/>
<path d="M133.68 462.23C139.95 464.44 146.31 466.69 151.78 470.47C157.25 474.25 161.78 479.81 162.92 486.36" stroke="#1D1D1F" stroke-width="4" stroke-miterlimit="10"/>
<path d="M154.309 452.051C159.949 453.711 165.659 455.401 170.689 458.441C175.719 461.481 180.089 466.081 181.559 471.781" stroke="#1D1D1F" stroke-width="4" stroke-miterlimit="10"/>
<path d="M173.078 442.221C178.243 443.135 183.161 445.11 187.523 448.023C191.885 450.935 195.594 454.721 198.418 459.141" stroke="#1D1D1F" stroke-width="4" stroke-miterlimit="10"/>
<path d="M190.871 432.971C195.727 434.067 200.376 435.934 204.641 438.501C208.821 441.201 212.351 445.151 213.741 449.921" stroke="#1D1D1F" stroke-width="4" stroke-miterlimit="10"/>
<path d="M172.183 303.147L148.5 314.967C149.562 299.19 151.856 283.52 155.361 268.099C157.748 255.462 162.559 242.969 166.409 230.476C166.409 226.632 168.333 223.749 164.484 219.905C161.597 217.022 155.823 218.944 157.748 223.749C172.183 260.267 182.768 297.746 186.617 336.551C191.217 334.629 186.415 333.822 186.617 336.551C215.237 324.558 242.884 310.46 270.945 297.256C278.894 293.508 295.455 284.763 303.5 281.265L302.865 272.376" stroke="#1D1D1F" stroke-width="4" stroke-miterlimit="10"/>
<path d="M194 212.284L176.5 220.469C176.5 220.469 192.842 252.048 201.428 312.551L312.5 260.981C309.927 215.013 295.319 190.483 283.226 170.551L272.804 175.426M208 205.736L227.638 196.551M241.535 190.051L262.381 180.301" stroke="#1D1D1F" stroke-width="4" stroke-miterlimit="10"/>
<path d="M169.5 207.982C173.974 182.87 213.168 199.248 198.05 226.551" stroke="#1D1D1F" stroke-width="4" stroke-miterlimit="10"/>
<path d="M202.5 192.383C206.974 166.461 246.168 183.367 231.05 211.551" stroke="#1D1D1F" stroke-width="4" stroke-miterlimit="10"/>
<path d="M237.5 175.982C241.842 150.87 279.8 167.248 265.159 194.551" stroke="#1D1D1F" stroke-width="4" stroke-miterlimit="10"/>
<path d="M207.5 248.4C210.32 246.827 212.676 244.532 214.328 241.748C215.981 238.965 216.872 235.792 216.911 232.551C218.26 242.641 220.125 252.654 222.5 262.551" stroke="#1D1D1F" stroke-width="4" stroke-miterlimit="10"/>
<path d="M234.5 231.551C239.766 228.785 270.872 215.448 281.5 210.551" stroke="#1D1D1F" stroke-width="4" stroke-miterlimit="10"/>
<path d="M241.5 251.551C246.766 248.653 277.872 234.681 288.5 229.551" stroke="#1D1D1F" stroke-width="4" stroke-miterlimit="10"/>
<path d="M214.5 283.551C223.114 279.075 274.087 257.419 291.5 249.551" stroke="#1D1D1F" stroke-width="4" stroke-miterlimit="10"/>
<path d="M594.831 422.52C594.831 422.52 587.951 414.52 588.311 396.52C589.311 396.52 605.861 395.98 609.431 410.52" stroke="#1D1D1F" stroke-width="4" stroke-miterlimit="10"/>
<path d="M614.75 416.131C614.75 416.131 615.92 397.991 632.12 393.361C636.52 399.521 641.12 405.481 639.68 411.261" stroke="#1D1D1F" stroke-width="4" stroke-miterlimit="10"/>
<path d="M639.23 424.021C649.08 411.901 656.501 410.601 668.031 410.731C667.421 427.141 658.93 429.401 658.93 429.401" stroke="#1D1D1F" stroke-width="4" stroke-miterlimit="10"/>
<path d="M639.808 432.731C647.808 432.281 658.608 437.731 659.398 443.961C659.398 443.961 648.518 451.401 636.398 440.961" stroke="#1D1D1F" stroke-width="4" stroke-miterlimit="10"/>
<path d="M628.29 440.301C631.18 445.061 628.94 452.541 623.15 455.051C618.51 453.051 611.02 449.751 614.27 440.351" stroke="#1D1D1F" stroke-width="4" stroke-miterlimit="10"/>
<path d="M597.761 432.641C582.831 432.641 587.691 442.641 589.411 447.991C594.611 448.061 604.741 445.231 604.631 438.991" stroke="#1D1D1F" stroke-width="4" stroke-miterlimit="10"/>
<path d="M582.071 434.171C574.131 438.591 558.941 426.32 558.941 426.32C568.181 414.43 580.311 417.63 585.721 421.77" stroke="#1D1D1F" stroke-width="4" stroke-miterlimit="10"/>
<path d="M617.23 428.472C618.06 424.592 624.29 418.652 629.62 417.182C631.89 421.072 632.79 424.952 628.5 432.842" stroke="#1D1D1F" stroke-width="4" stroke-miterlimit="10"/>
<path d="M603.291 430.78C603.291 430.78 598.901 424.5 599.511 417.86C599.511 417.86 608.641 417.62 611.041 425.46" stroke="#1D1D1F" stroke-width="4" stroke-miterlimit="10"/>
<path d="M648.32 457.711C657.42 458.241 666.54 455.351 675.17 454.591C674.24 447.291 673.11 439.331 663.91 436.221" stroke="#1D1D1F" stroke-width="4" stroke-miterlimit="10"/>
<path d="M606.57 460.211C607.26 463.871 616.8 469.841 620.74 473.211C626.66 468.561 632.2 465.341 634.55 461.141" stroke="#1D1D1F" stroke-width="4" stroke-miterlimit="10"/>
<path d="M577.759 442.281C571.839 445.991 567.889 452.681 565.609 458.871C573.609 460.031 587.969 461.471 595.949 456.231" stroke="#1D1D1F" stroke-width="4" stroke-miterlimit="10"/>
<path d="M563.561 465.701C561.561 473.531 567.851 493.881 614.751 497.951C661.651 502.021 674.861 470.711 667.601 463.201" stroke="#1D1D1F" stroke-width="4" stroke-miterlimit="10"/>
<path d="M658.898 494.791C658.898 494.791 659.288 517.561 657.798 524.961C656.078 533.501 649.588 548.851 616.398 547.861C586.898 546.981 580.958 533.101 579.188 524.961L576.988 496.111" stroke="#1D1D1F" stroke-width="4" stroke-miterlimit="10"/>
<path d="M461.84 462.21L568.63 402.32" stroke="#1D1D1F" stroke-width="4" stroke-miterlimit="10"/>
<g clip-path="url(#clip0_1_307)">
<mask id="mask0_1_307" style="mask-type:alpha" maskUnits="userSpaceOnUse" x="492" y="36" width="249" height="141">
<path d="M635.5 176.557L504 123.057L492 93.0566L528 36.5566L687.5 42.5566L741 105.557L635.5 176.557Z" fill="#C4C4C4"/>
</mask>
<g mask="url(#mask0_1_307)">
<path d="M622.491 158.926C622.55 158.158 622.36 157.392 621.949 156.74C621.538 156.088 620.929 155.585 620.211 155.306L610.501 152.596C609.864 152.364 609.304 151.961 608.881 151.432C608.458 150.903 608.188 150.268 608.101 149.596L605.751 136.956C605.601 136.316 605.614 135.648 605.789 135.014C605.964 134.38 606.294 133.8 606.751 133.326L614.751 126.246C615.27 125.694 615.612 124.999 615.735 124.251C615.858 123.504 615.755 122.736 615.441 122.046C613.145 116.542 610.262 111.301 606.841 106.416C606.677 106.12 606.45 105.863 606.176 105.663C605.902 105.464 605.587 105.327 605.254 105.262C604.922 105.197 604.579 105.206 604.25 105.288C603.921 105.37 603.614 105.523 603.351 105.736L595.951 112.106C595.494 112.493 594.909 112.694 594.311 112.67C593.712 112.646 593.145 112.399 592.721 111.976L584.131 104.456C583.639 103.985 583.262 103.408 583.028 102.768C582.794 102.128 582.709 101.444 582.781 100.766L583.971 88.8664C584.074 88.1146 583.951 87.3492 583.618 86.6673C583.285 85.9854 582.757 85.4178 582.101 85.0364C579.897 84.0036 577.621 83.1314 575.291 82.4264C572.835 81.6849 570.324 81.1432 567.781 80.8064C566.451 80.6364 565.301 81.8064 565.111 83.4364L563.951 94.2664C563.928 94.904 563.707 95.5187 563.318 96.0243C562.929 96.5299 562.391 96.9013 561.781 97.0864L551.991 99.0864C551.394 99.1655 550.788 99.0531 550.26 98.7656C549.732 98.478 549.308 98.0301 549.051 97.4864L543.381 87.6664C542.581 86.2964 541.171 85.7664 540.041 86.4264C535.657 88.996 531.685 92.2122 528.261 95.9664C527.777 96.5936 527.49 97.3504 527.436 98.1409C527.383 98.9313 527.565 99.7198 527.961 100.406L533.131 109.616C533.476 110.242 533.669 110.94 533.695 111.654C533.721 112.367 533.579 113.077 533.281 113.726L528.001 124.106C527.779 124.638 527.377 125.075 526.864 125.338C526.352 125.602 525.762 125.676 525.201 125.546L515.871 123.136C515.547 123.072 515.214 123.075 514.892 123.144C514.569 123.214 514.264 123.349 513.996 123.541C513.728 123.733 513.502 123.979 513.333 124.262C513.163 124.545 513.054 124.859 513.011 125.186C512.198 128.416 511.58 131.692 511.161 134.996C510.821 137.663 510.601 140.33 510.501 142.996C510.436 143.775 510.624 144.553 511.036 145.216C511.449 145.879 512.064 146.391 512.791 146.676L521.571 149.116C522.206 149.351 522.765 149.754 523.188 150.283C523.611 150.811 523.882 151.445 523.971 152.116L526.321 164.756C526.471 165.397 526.458 166.065 526.284 166.699C526.109 167.333 525.778 167.913 525.321 168.386L517.511 175.316C516.997 175.855 516.654 176.533 516.524 177.266C516.394 177.999 516.483 178.754 516.781 179.436C518.958 185.018 521.731 190.349 525.051 195.336C525.208 195.646 525.432 195.916 525.707 196.128C525.982 196.34 526.3 196.488 526.64 196.56C526.979 196.633 527.33 196.629 527.668 196.549C528.005 196.469 528.321 196.314 528.591 196.096L536.121 189.646C536.578 189.26 537.163 189.058 537.761 189.083C538.359 189.107 538.926 189.354 539.351 189.776L547.931 197.286C548.425 197.758 548.804 198.337 549.039 198.979C549.273 199.62 549.356 200.307 549.281 200.986L547.951 214.106C547.853 214.852 547.975 215.609 548.302 216.286C548.629 216.963 549.146 217.529 549.791 217.916C552.319 219.165 554.944 220.205 557.641 221.026C559.738 221.658 561.877 222.145 564.041 222.486C565.401 222.696 566.581 221.556 566.771 219.856L568.161 207.526C568.172 206.885 568.389 206.263 568.78 205.754C569.17 205.245 569.714 204.874 570.331 204.696L580.111 202.696C580.708 202.62 581.315 202.733 581.844 203.02C582.373 203.307 582.799 203.754 583.061 204.296L589.661 215.736C589.792 216.043 589.984 216.319 590.226 216.548C590.467 216.778 590.753 216.956 591.065 217.072C591.377 217.188 591.71 217.239 592.043 217.223C592.375 217.206 592.701 217.123 593.001 216.976C597.376 214.403 601.341 211.187 604.761 207.436C605.241 206.809 605.525 206.054 605.577 205.265C605.628 204.477 605.445 203.691 605.051 203.006L598.951 192.106C598.6 191.483 598.404 190.785 598.378 190.07C598.351 189.355 598.497 188.644 598.801 187.996L604.051 177.626C604.274 177.094 604.679 176.657 605.193 176.393C605.707 176.13 606.298 176.057 606.861 176.186L617.401 178.916C617.729 178.981 618.066 178.976 618.392 178.904C618.718 178.831 619.026 178.692 619.296 178.495C619.565 178.297 619.791 178.046 619.959 177.758C620.127 177.469 620.233 177.148 620.271 176.816C620.923 174.031 621.43 171.214 621.791 168.376C622.191 165.241 622.425 162.087 622.491 158.926V158.926ZM561.821 185.976C546.641 181.396 536.301 162.266 538.731 143.246C541.161 124.226 555.441 112.526 570.621 117.106C585.801 121.686 596.131 140.826 593.701 159.846C591.271 178.866 577.001 190.566 561.821 185.976Z" stroke="black" stroke-width="4" stroke-miterlimit="10"/>
</g>
<mask id="mask1_1_307" style="mask-type:alpha" maskUnits="userSpaceOnUse" x="579" y="49" width="100" height="117">
<path d="M603 90.5566L579.5 59.5566L626 49.5566L668.5 68.5566L679 150.557L635 165.057V148.557L628.5 140.557L620 137.557L621.5 127.557L626 126.557L628.5 122.057L626 114.057L610 94.0566L603.5 99.5566L599 97.0566L603 90.5566Z" fill="#C4C4C4"/>
</mask>
<g mask="url(#mask1_1_307)">
<path d="M659.447 114.211C659.466 113.768 659.333 113.333 659.072 112.974C658.81 112.616 658.434 112.356 658.006 112.237L653.701 111.551C653.401 111.48 653.129 111.324 652.917 111.101C652.705 110.879 652.563 110.6 652.507 110.299L649.092 97.3458C649.007 97.0496 648.994 96.7373 649.055 96.4351C649.116 96.1329 649.248 95.8496 649.441 95.6089L652.581 92.2084C652.857 91.8526 653.022 91.4234 653.055 90.9745C653.088 90.5257 652.987 90.0773 652.764 89.6855C649.983 84.5655 646.204 80.0499 641.648 76.4034C641.496 76.2738 641.316 76.1815 641.122 76.1338C640.929 76.0862 640.726 76.0845 640.531 76.1289C640.337 76.1734 640.155 76.2628 640.002 76.3898C639.848 76.5168 639.726 76.678 639.647 76.8604L636.838 82.1257C636.723 82.3772 636.519 82.5777 636.265 82.689C636.011 82.8003 635.725 82.8145 635.461 82.729L625.125 79.1366C624.847 79.0178 624.605 78.8289 624.423 78.5884C624.241 78.3478 624.125 78.0641 624.087 77.7654L622.885 71.1838C622.839 70.7615 622.648 70.3682 622.343 70.0713C622.038 69.7744 621.639 69.5924 621.214 69.5566C616.149 69.8913 611.282 71.6401 607.169 74.6025C606.834 74.902 606.603 75.2996 606.509 75.7381C606.415 76.1767 606.463 76.6336 606.646 77.0433L609.4 83.9997C609.519 84.2967 609.564 84.6179 609.532 84.9361C609.5 85.2543 609.392 85.5602 609.216 85.8279L602.267 95.1884C602.122 95.4065 601.902 95.5641 601.649 95.6314C601.395 95.6988 601.125 95.6713 600.89 95.5541L595.603 93.0128C595.42 92.934 595.221 92.8971 595.022 92.905C594.823 92.9129 594.628 92.9652 594.451 93.0583C594.275 93.1513 594.122 93.2826 594.004 93.4425C593.885 93.6023 593.804 93.7867 593.767 93.9818C592.904 96.7653 592.289 99.6193 591.931 102.511C591.512 105.805 591.398 109.131 591.591 112.447C591.589 112.878 591.729 113.299 591.989 113.644C592.249 113.989 592.616 114.24 593.033 114.357L598.834 115.272C599.133 115.344 599.405 115.5 599.616 115.722C599.828 115.945 599.971 116.223 600.028 116.524L603.442 129.477C603.528 129.772 603.541 130.082 603.48 130.383C603.419 130.684 603.287 130.966 603.094 131.205L599.578 135.026C599.288 135.393 599.121 135.841 599.098 136.308C599.074 136.774 599.197 137.237 599.449 137.631C602.445 142.56 606.429 146.82 611.153 150.145C611.307 150.259 611.484 150.336 611.671 150.372C611.859 150.407 612.052 150.4 612.237 150.351C612.421 150.302 612.592 150.212 612.737 150.087C612.882 149.963 612.996 149.808 613.072 149.633L615.706 144.697C615.821 144.445 616.025 144.245 616.279 144.134C616.533 144.022 616.819 144.008 617.083 144.094L627.438 147.695C627.715 147.812 627.957 148 628.139 148.239C628.321 148.478 628.437 148.76 628.475 149.057L629.393 153.939C629.429 154.371 629.624 154.776 629.941 155.074C630.258 155.373 630.674 155.545 631.11 155.557C636.026 154.988 640.692 153.091 644.604 150.072C644.931 149.771 645.155 149.375 645.246 148.941C645.336 148.507 645.288 148.055 645.109 147.65L643.208 142.814C643.089 142.517 643.044 142.196 643.076 141.877C643.108 141.559 643.216 141.253 643.392 140.986L650.332 131.625C650.477 131.405 650.699 131.246 650.955 131.178C651.21 131.111 651.482 131.14 651.718 131.259L655.206 132.932C655.385 133.013 655.58 133.053 655.777 133.049C655.973 133.046 656.167 132.998 656.343 132.911C656.519 132.823 656.673 132.697 656.794 132.543C656.915 132.389 656.999 132.209 657.042 132.018C658.04 128.994 658.744 125.88 659.144 122.722C659.473 119.897 659.574 117.051 659.447 114.211Z" stroke="black" stroke-width="4" stroke-miterlimit="10"/>
<path d="M610.679 110.337C609.454 120.007 614.656 129.726 622.291 132.053C629.902 134.379 637.096 128.431 638.321 118.769C639.546 109.108 634.352 99.3883 626.717 97.0617C619.082 94.735 611.904 100.667 610.679 110.337Z" stroke="black" stroke-width="4" stroke-miterlimit="10"/>
</g>
</g>
<defs>
<clipPath id="clip0_1_307">
<rect width="158.87" height="160.92" fill="white" transform="translate(508.5 63.5566)"/>
</clipPath>
</defs>
</svg>
